<svg width="144" height="144" viewBox="0 0 144 144" fill="none" xmlns="http://www.w3.org/2000/svg">
<rect width="144" height="144" fill="white"/>
<path d="M101 89C101 104.74 88.2401 117.5 72.5 117.5C56.7599 117.5 44 104.74 44 89C44 85.1338 45.159 80.2547 47.1681 74.7426C49.1661 69.261 51.9516 63.2945 55.0851 57.2969C60.7096 46.5319 67.3918 35.7865 72.5 27.7293C77.6082 35.7865 84.2904 46.5319 89.9149 57.2969C93.0484 63.2945 95.8339 69.261 97.8319 74.7426C99.841 80.2547 101 85.1338 101 89Z" stroke="black" stroke-width="4"/>
<path d="M100 88.2147C100 103.56 87.6878 116 72.5 116C57.3122 116 51 103.56 51 88.2147C51 72.8692 63.0328 44.0314 72.5 29C81.9672 44.0314 100 72.8692 100 88.2147Z" fill="black"/>
</svg>
