<svg viewBox="0 0 48 48" fill="none" xmlns="http://www.w3.org/2000/svg"><path d="M0 24V0h48v48H0V24Z" fill="#FFEBD7"/><path d="M33.583 12.599a.75.75 0 0 0-1.061-1.06l-2.827 2.827a.748.748 0 0 0-.017 1.077.75.75 0 0 0 1.077-.017l2.827-2.827Zm-8.897-2.737a.75.75 0 1 0-1.5 0v3.998a.75.75 0 1 0 1.5 0V9.863Zm-9.462 1.722a.75.75 0 0 0-1.061 1.06l2.827 2.827a.75.75 0 1 0 1.06-1.06l-2.826-2.828v.001Z" fill="#D9A677"/><path fill-rule="evenodd" clip-rule="evenodd" d="M27.365 16.195a.667.667 0 0 1 .652.529l.811 3.831a.666.666 0 0 1-.652.804h-8.185a.667.667 0 0 1-.652-.804l.812-3.831a.667.667 0 0 1 .652-.529h6.562Zm-4.83 5.998a.667.667 0 0 1 .651.528l.81 3.832a.666.666 0 0 1-.651.804h-8.183a.666.666 0 0 1-.652-.805l.818-3.832a.667.667 0 0 1 .65-.527h6.557Zm-5.007 5.664a.666.666 0 0 1 .652.527l.817 3.832a.666.666 0 0 1-.651.806h-8.184a.668.668 0 0 1-.652-.805l.81-3.831a.667.667 0 0 1 .651-.529h6.556Zm9.837 0a.666.666 0 0 1 .652.529l.811 3.83a.666.666 0 0 1-.652.805h-8.185a.666.666 0 0 1-.652-.804l.812-3.831a.667.667 0 0 1 .652-.529h6.562Zm10.315.529a.667.667 0 0 0-.652-.529h-6.564a.666.666 0 0 0-.652.529l-.811 3.83a.666.666 0 0 0 .652.805h8.186a.665.665 0 0 0 .651-.804l-.81-3.831Zm-4.665-5.665a.667.667 0 0 0-.652-.528H25.8a.666.666 0 0 0-.653.528l-.81 3.832a.668.668 0 0 0 .651.804h8.185a.667.667 0 0 0 .652-.804l-.81-3.832Z" fill="#B87333"/><path fill-rule="evenodd" clip-rule="evenodd" d="M27.365 15.84a.666.666 0 0 1 .652.529l.811 3.831a.666.666 0 0 1-.652.804h-8.185a.666.666 0 0 1-.652-.804l.812-3.831a.666.666 0 0 1 .652-.529h6.562Zm-4.83 5.998a.666.666 0 0 1 .651.528l.81 3.832a.666.666 0 0 1-.651.804h-8.183a.666.666 0 0 1-.652-.805l.818-3.832a.667.667 0 0 1 .65-.527h6.557Zm-5.007 5.664a.666.666 0 0 1 .652.527l.817 3.832a.666.666 0 0 1-.651.806h-8.184a.668.668 0 0 1-.652-.805l.81-3.831a.667.667 0 0 1 .651-.529h6.556Zm9.837 0a.667.667 0 0 1 .652.529l.811 3.83a.665.665 0 0 1-.652.806h-8.185a.668.668 0 0 1-.652-.805l.812-3.831a.667.667 0 0 1 .652-.529h6.562Zm10.315.529a.667.667 0 0 0-.652-.529h-6.564a.667.667 0 0 0-.652.529l-.811 3.83a.667.667 0 0 0 .652.806h8.186a.666.666 0 0 0 .651-.805l-.81-3.831Zm-4.665-5.665a.667.667 0 0 0-.652-.528H25.8a.666.666 0 0 0-.653.528l-.81 3.832a.667.667 0 0 0 .651.804h8.185a.667.667 0 0 0 .652-.804l-.81-3.832Z" fill="#CF8D51"/><path fill-rule="evenodd" clip-rule="evenodd" d="M25.05 16.39c.265 0 .36.472.124.591-.605.306-2.969 1.38-4.244 1.957a.498.498 0 0 1-.7-.524l.249-1.76a.333.333 0 0 1 .332-.288l4.24.023Zm-4.83 5.997c.263 0 .358.472.122.591-.604.306-2.968 1.38-4.243 1.958a.498.498 0 0 1-.7-.524l.249-1.761a.333.333 0 0 1 .331-.287l4.24.023Zm9.828 0c.265 0 .359.472.124.591-.605.306-2.969 1.38-4.244 1.958a.499.499 0 0 1-.7-.524l.249-1.761a.333.333 0 0 1 .332-.287l4.24.023Zm-4.998 5.83c.265.002.36.473.124.593-.605.305-2.969 1.38-4.244 1.956a.498.498 0 0 1-.7-.524l.249-1.761a.334.334 0 0 1 .332-.286l4.24.022Zm9.83 0c.264.002.359.473.122.593-.604.305-2.967 1.38-4.243 1.956a.499.499 0 0 1-.7-.524l.25-1.761a.334.334 0 0 1 .33-.286l4.24.022Zm-19.708 0c.264.002.358.473.122.593-.604.305-2.968 1.38-4.243 1.956a.498.498 0 0 1-.7-.524l.248-1.761a.334.334 0 0 1 .333-.286l4.24.022Z" fill="#FDF9D2"/></svg>