<svg width="24" height="15" viewBox="0 0 24 15" fill="none" xmlns="http://www.w3.org/2000/svg">
<path d="M1.44 9.218L0 10.636l2.16-.945-1.44 1.89L2.88 10.4l.96.71.72-.237 1.68.709.24-.237V10.4h.48v-.71l-.48-.708-1.44-1.655-.72-.236h.72l1.68 1.418h1.44l-.24-2.127.72 2.127-.96 1.655.48 1.418 2.88 1.182.72-1.182c.576 0 .88-.63.96-.946h-.96l-.72.946h-.48l-.96-.71V10.4L12 8.51l-.24.708h4.8v-1.89c.384.377.64 1.733.72 2.363 1.2 1.418 3.12 1.654 3.6 1.654s1.68 1.655 1.2 1.891c-.384.19-.48.71-.48.946h1.44v-1.655c0-1.512-1.12-2.679-1.68-3.072.192-.946-.24-2.285-.48-2.837l1.92.237L24 5.673l-.72-2.128-.96-1.181C23.472 1.985 23.76.63 23.76 0L21.6 2.364l1.2 1.418.48 1.418-.72.71-1.68-.237-1.2-.946L7.92.237 2.64 4.963l-1.2 4.254z" fill="#007c32"/>
</svg>
