<svg width="24" height="15" viewBox="0 0 24 15" fill="none" xmlns="http://www.w3.org/2000/svg">
<path d="M24 6.171l-1.6-1.6.457-.228-1.143-1.372.229-.685-1.6.228L13.486 0l-2.743 2.514 1.143-1.6-6.4-.685L1.6 3.657V8.23l-1.143 1.6L0 12.343l1.143 1.143H3.2c-.076-.305-.366-.96-.914-1.143.076-.381.32-1.189.685-1.372.458-.228 1.6-.914 2.286-1.6L6.4 8.23c-.305.38-.914 1.234-.914 1.6 0 .365.152 1.676.228 2.285l1.143.686h2.286c.152-.152.091-.503-1.372-.686l.686-2.285L11.2 7.543c.076 0 .229.046.229.228 0 .183-.762 1.6-1.143 2.286l.457 1.829.914.685h2.057c0-.228-.183-.685-.914-.685-.076-.457.046-1.692 1.143-2.972A58.554 58.554 0 0016 6.4c0-.152-.091-.64-.457-1.371-.114-.229-.229-.915.228-1.143 0 .38.092.823.458 1.371.28.42.79.87 1.212 1.242.267.235.498.44.616.587.534-.076 1.692-.183 2.057 0 .366.183 1.524.533 2.057.685.229 0 .595-.091.229-.457a4.01 4.01 0 01-.686-.914l1.372.686c.305-.229.914-.732.914-.915zm-7.543.458L14.4 9.37c.915.077 2.743.275 2.743.458a2.8 2.8 0 01-.039.319c-.053.35-.125.823.04.823.047 0 .085.02.12.04.138.072.25.131.794-.954.548-1.097.076-1.98-.23-2.286l-1.37-1.142z" fill="#d91400"/>
</svg>
